<svg width="19" height="20" viewBox="0 0 19 20" fill="none" xmlns="http://www.w3.org/2000/svg">
    <path d="M17.3 11.4301C17.048 11.3515 16.7752 11.3758 16.5411 11.4975C16.3069 11.6193 16.1304 11.8287 16.05 12.0801C15.5776 13.5245 14.6566 14.7806 13.421 15.6655C12.1854 16.5503 10.6997 17.0179 9.18 17.0001C7.30035 17.0214 5.48894 16.2965 4.14297 14.9843C2.79701 13.6721 2.02635 11.8796 2 10.0001C2.02635 8.12047 2.79701 6.32804 4.14297 5.01582C5.48894 3.7036 7.30035 2.97869 9.18 3.00006C10.8776 2.99596 12.5229 3.58686 13.83 4.67006L11.66 4.31006C11.5299 4.28866 11.3969 4.29318 11.2686 4.32336C11.1403 4.35354 11.0193 4.40879 10.9124 4.48592C10.8055 4.56306 10.715 4.66056 10.6459 4.77282C10.5768 4.88508 10.5307 5.00989 10.51 5.14006C10.4886 5.27011 10.4931 5.40311 10.5233 5.53141C10.5535 5.65971 10.6087 5.78078 10.6859 5.88765C10.763 5.99452 10.8605 6.08509 10.9728 6.15415C11.085 6.22321 11.2098 6.2694 11.34 6.29006L15.58 6.99006H15.75C15.866 6.98992 15.981 6.96962 16.09 6.93006C16.1266 6.91615 16.1605 6.89584 16.19 6.87006C16.2617 6.8434 16.3291 6.80633 16.39 6.76006L16.48 6.65006C16.48 6.60006 16.57 6.56006 16.61 6.50006C16.65 6.44006 16.61 6.40006 16.66 6.36006C16.6876 6.30182 16.711 6.24166 16.73 6.18006L17.48 2.18006C17.505 2.04874 17.5038 1.91379 17.4766 1.78291C17.4494 1.65204 17.3967 1.5278 17.3215 1.4173C17.2462 1.3068 17.15 1.21219 17.0382 1.13889C16.9264 1.06558 16.8013 1.01501 16.67 0.990058C16.5387 0.965107 16.4037 0.966266 16.2729 0.993469C16.142 1.02067 16.0177 1.07339 15.9072 1.1486C15.6841 1.30051 15.5304 1.53484 15.48 1.80006L15.21 3.25006C13.536 1.7993 11.3952 1.00049 9.18 1.00006C6.76993 0.978725 4.44984 1.91435 2.7288 3.60164C1.00777 5.28892 0.0263909 7.59004 0 10.0001C0.0263909 12.4101 1.00777 14.7112 2.7288 16.3985C4.44984 18.0858 6.76993 19.0214 9.18 19.0001C11.1331 19.0301 13.0443 18.4322 14.6321 17.2944C16.22 16.1567 17.4005 14.5392 18 12.6801C18.0379 12.552 18.0498 12.4177 18.035 12.285C18.0202 12.1523 17.9789 12.0239 17.9137 11.9074C17.8485 11.7909 17.7605 11.6886 17.6551 11.6066C17.5497 11.5247 17.429 11.4646 17.3 11.4301Z" fill="#FAFAFA" />
</svg>
    