<svg className="trash" width="16" height="19" viewBox="0 0 16 19" fill="none" xmlns="http://www.w3.org/2000/svg">
    <path d="M4.92306 6.76923C5.08627 6.76923 5.2428 6.83406 5.35821 6.94947C5.47361 7.06488 5.53845 7.2214 5.53845 7.38461V14.7692C5.53845 14.9324 5.47361 15.089 5.35821 15.2044C5.2428 15.3198 5.08627 15.3846 4.92306 15.3846C4.75985 15.3846 4.60333 15.3198 4.48792 15.2044C4.37251 15.089 4.30768 14.9324 4.30768 14.7692V7.38461C4.30768 7.2214 4.37251 7.06488 4.48792 6.94947C4.60333 6.83406 4.75985 6.76923 4.92306 6.76923ZM7.99999 6.76923C8.1632 6.76923 8.31972 6.83406 8.43513 6.94947C8.55054 7.06488 8.61537 7.2214 8.61537 7.38461V14.7692C8.61537 14.9324 8.55054 15.089 8.43513 15.2044C8.31972 15.3198 8.1632 15.3846 7.99999 15.3846C7.83678 15.3846 7.68025 15.3198 7.56484 15.2044C7.44944 15.089 7.3846 14.9324 7.3846 14.7692V7.38461C7.3846 7.2214 7.44944 7.06488 7.56484 6.94947C7.68025 6.83406 7.83678 6.76923 7.99999 6.76923ZM11.6923 7.38461C11.6923 7.2214 11.6275 7.06488 11.5121 6.94947C11.3966 6.83406 11.2401 6.76923 11.0769 6.76923C10.9137 6.76923 10.7572 6.83406 10.6418 6.94947C10.5264 7.06488 10.4615 7.2214 10.4615 7.38461V14.7692C10.4615 14.9324 10.5264 15.089 10.6418 15.2044C10.7572 15.3198 10.9137 15.3846 11.0769 15.3846C11.2401 15.3846 11.3966 15.3198 11.5121 15.2044C11.6275 15.089 11.6923 14.9324 11.6923 14.7692V7.38461Z" fill="#252422" />
    <path fill-rule="evenodd" clip-rule="evenodd" d="M16 3.69231C16 4.01873 15.8703 4.33178 15.6395 4.56259C15.4087 4.79341 15.0957 4.92308 14.7692 4.92308H14.1538V16C14.1538 16.6528 13.8945 17.2789 13.4329 17.7406C12.9713 18.2022 12.3451 18.4615 11.6923 18.4615H4.30769C3.65485 18.4615 3.02875 18.2022 2.56712 17.7406C2.10549 17.2789 1.84615 16.6528 1.84615 16V4.92308H1.23077C0.904349 4.92308 0.591298 4.79341 0.360484 4.56259C0.12967 4.33178 0 4.01873 0 3.69231V2.46154C0 2.13512 0.12967 1.82207 0.360484 1.59125C0.591298 1.36044 0.904349 1.23077 1.23077 1.23077H5.53846C5.53846 0.904349 5.66813 0.591298 5.89895 0.360484C6.12976 0.12967 6.44281 0 6.76923 0L9.23077 0C9.55719 0 9.87024 0.12967 10.1011 0.360484C10.3319 0.591298 10.4615 0.904349 10.4615 1.23077H14.7692C15.0957 1.23077 15.4087 1.36044 15.6395 1.59125C15.8703 1.82207 16 2.13512 16 2.46154V3.69231ZM3.22215 4.92308L3.07692 4.99569V16C3.07692 16.3264 3.20659 16.6395 3.43741 16.8703C3.66822 17.1011 3.98127 17.2308 4.30769 17.2308H11.6923C12.0187 17.2308 12.3318 17.1011 12.5626 16.8703C12.7934 16.6395 12.9231 16.3264 12.9231 16V4.99569L12.7778 4.92308H3.22215ZM1.23077 3.69231V2.46154H14.7692V3.69231H1.23077Z" fill="#252422" />
</svg>
